<svg xmlns="http://www.w3.org/2000/svg" viewBox="0 0 800 500" width="800" height="500">
  <rect width="800" height="500" fill="#2c2c2c"></rect>
  
  <rect x="30" y="25" width="740" height="450" fill="#3a3a3a" stroke="#555" stroke-width="2" rx="4"></rect>
  <rect x="30" y="25" width="740" height="32" fill="#444" rx="4"></rect>
  <circle cx="50" cy="41" r="5" fill="#e74c3c"></circle>
  <circle cx="68" cy="41" r="5" fill="#f39c12"></circle>
  <circle cx="86" cy="41" r="5" fill="#666"></circle>
  
  <rect x="30" y="57" width="740" height="35" fill="#1a1a1a"></rect>
  <rect x="45" y="64" width="50" height="20" fill="#555" rx="2"></rect>
  <rect x="105" y="64" width="50" height="20" fill="#555" rx="2"></rect>
  <rect x="165" y="64" width="50" height="20" fill="#555" rx="2"></rect>
  <rect x="225" y="64" width="50" height="20" fill="#555" rx="2"></rect>
  <rect x="285" y="64" width="50" height="20" fill="#555" rx="2"></rect>
  <rect x="345" y="64" width="50" height="20" fill="#555" rx="2"></rect>
  <rect x="405" y="64" width="50" height="20" fill="#555" rx="2"></rect>
  <rect x="465" y="64" width="50" height="20" fill="#c0392b" rx="2"></rect>
  <rect x="680" y="64" width="70" height="20" fill="#c0392b" rx="2"></rect>
  
  <rect x="30" y="92" width="740" height="100" fill="#4a4a4a"></rect>
  <rect x="200" y="115" width="400" height="20" fill="#666" rx="2"></rect>
  <rect x="250" y="145" width="300" height="14" fill="#555" rx="2"></rect>
  <rect x="320" y="168" width="160" height="16" fill="#c0392b" rx="2"></rect>
  
  <rect x="40" y="200" width="170" height="120" fill="#4a4a4a" stroke="#555" stroke-width="1"></rect>
  <rect x="220" y="200" width="170" height="120" fill="#4a4a4a" stroke="#555" stroke-width="1"></rect>
  <rect x="400" y="200" width="170" height="120" fill="#4a4a4a" stroke="#555" stroke-width="1"></rect>
  <rect x="580" y="200" width="170" height="120" fill="#4a4a4a" stroke="#555" stroke-width="1"></rect>
  
  <rect x="40" y="330" width="110" height="80" fill="#555"></rect>
  <rect x="160" y="330" width="110" height="80" fill="#4a4a4a"></rect>
  <rect x="280" y="330" width="110" height="80" fill="#555"></rect>
  <rect x="400" y="330" width="110" height="80" fill="#4a4a4a"></rect>
  <rect x="520" y="330" width="110" height="80" fill="#555"></rect>
  <rect x="640" y="330" width="110" height="80" fill="#4a4a4a"></rect>
  
  <rect x="580" y="100" width="180" height="90" fill="#c0392b" stroke="#fff" stroke-width="1" rx="4"></rect>
  <rect x="595" y="115" width="150" height="10" fill="#e67e73" rx="2"></rect>
  <rect x="595" y="135" width="120" height="8" fill="#e67e73" rx="2"></rect>
  <rect x="610" y="155" width="80" height="20" fill="#fff" rx="3"></rect>
  
  <rect x="30" y="420" width="740" height="55" fill="#1a1a1a"></rect>
  
  <rect x="280" y="210" width="240" height="60" fill="rgba(0,0,0,0.8)" rx="8"></rect>
  <text x="400" y="248" text-anchor="middle" font-family="Arial, sans-serif" font-size="28" font-weight="bold" fill="#e74c3c">Ancien site</text>
</svg>