<svg xmlns="http://www.w3.org/2000/svg" viewBox="0 0 800 500" width="800" height="500">
  <rect width="800" height="500" fill="#f8fdf9"/>
  <!-- Browser chrome -->
  <rect x="40" y="30" width="720" height="440" fill="#ffffff" stroke="#e0e0e0" stroke-width="1" rx="8"/>
  <rect x="40" y="30" width="720" height="35" fill="#f5f5f5" rx="8"/>
  <circle cx="62" cy="48" r="5" fill="#ff6b6b"/>
  <circle cx="80" cy="48" r="5" fill="#ffd93d"/>
  <circle cx="98" cy="48" r="5" fill="#6bcb77"/>
  <rect x="160" y="41" width="340" height="14" fill="#eee" rx="7"/>
  <!-- Clean nav -->
  <rect x="40" y="65" width="720" height="45" fill="#fff"/>
  <line x1="40" y1="110" x2="760" y2="110" stroke="#e8e8e8" stroke-width="1"/>
  <rect x="70" y="76" width="90" height="22" fill="#A2DBB6" rx="11"/>
  <rect x="190" y="80" width="50" height="14" fill="#ccc" rx="3"/>
  <rect x="260" y="80" width="60" height="14" fill="#ccc" rx="3"/>
  <rect x="340" y="80" width="45" height="14" fill="#ccc" rx="3"/>
  <rect x="650" y="76" width="90" height="22" fill="#A2DBB6" rx="11"/>
  <!-- Hero section -->
  <rect x="70" y="125" width="300" height="20" fill="#333" rx="3"/>
  <rect x="70" y="155" width="260" height="12" fill="#aaa" rx="3"/>
  <rect x="70" y="175" width="220" height="12" fill="#aaa" rx="3"/>
  <rect x="70" y="205" width="120" height="36" fill="#A2DBB6" rx="18"/>
  <!-- Hero image placeholder -->
  <rect x="430" y="120" width="300" height="160" fill="#e8f5ec" rx="12"/>
  <circle cx="580" cy="200" r="40" fill="#A2DBB6" opacity="0.5"/>
  <rect x="470" y="220" width="80" height="40" fill="#A2DBB6" opacity="0.3" rx="8"/>
  <!-- Cards row -->
  <rect x="70" y="300" width="200" height="140" fill="#fff" stroke="#e8e8e8" stroke-width="1" rx="8"/>
  <rect x="70" y="300" width="200" height="70" fill="#e8f5ec" rx="8"/>
  <rect x="90" y="385" width="140" height="10" fill="#ddd" rx="3"/>
  <rect x="90" y="405" width="100" height="10" fill="#eee" rx="3"/>
  <rect x="300" y="300" width="200" height="140" fill="#fff" stroke="#e8e8e8" stroke-width="1" rx="8"/>
  <rect x="300" y="300" width="200" height="70" fill="#e8f5ec" rx="8"/>
  <rect x="320" y="385" width="140" height="10" fill="#ddd" rx="3"/>
  <rect x="320" y="405" width="100" height="10" fill="#eee" rx="3"/>
  <rect x="530" y="300" width="200" height="140" fill="#fff" stroke="#e8e8e8" stroke-width="1" rx="8"/>
  <rect x="530" y="300" width="200" height="70" fill="#e8f5ec" rx="8"/>
  <rect x="550" y="385" width="140" height="10" fill="#ddd" rx="3"/>
  <rect x="550" y="405" width="100" height="10" fill="#eee" rx="3"/>
  <!-- Label -->
  <rect x="280" y="200" width="240" height="60" fill="rgba(0,0,0,0.7)" rx="8"/>
  <text x="400" y="238" text-anchor="middle" font-family="Arial, sans-serif" font-size="28" font-weight="bold" fill="#A2DBB6">Nouveau site</text>
</svg>