<svg xmlns="http://www.w3.org/2000/svg" viewBox="0 0 800 500" width="800" height="500">
  <rect width="800" height="500" fill="#f0faf3"></rect>
  
  <rect x="50" y="30" width="700" height="440" fill="#ffffff" stroke="#e0e0e0" stroke-width="1" rx="12"></rect>
  
  <rect x="50" y="30" width="160" height="440" fill="#fafafa" rx="12"></rect>
  <rect x="70" y="55" width="100" height="16" fill="#A2DBB6" rx="8"></rect>
  <rect x="70" y="95" width="110" height="10" fill="#ddd" rx="3"></rect>
  <rect x="70" y="115" width="110" height="10" fill="#eee" rx="3"></rect>
  <rect x="70" y="135" width="110" height="10" fill="#ddd" rx="3"></rect>
  <rect x="70" y="155" width="110" height="10" fill="#eee" rx="3"></rect>
  <rect x="70" y="175" width="110" height="10" fill="#ddd" rx="3"></rect>
  <rect x="60" y="90" width="140" height="30" fill="#e8f5ec" rx="6"></rect>
  
  <rect x="230" y="45" width="200" height="12" fill="#333" rx="3"></rect>
  <rect x="630" y="40" width="90" height="24" fill="#A2DBB6" rx="12"></rect>
  
  <rect x="230" y="80" width="150" height="75" fill="#f0faf3" stroke="#e8f5ec" stroke-width="1" rx="10"></rect>
  <rect x="250" y="95" width="60" height="8" fill="#bbb" rx="3"></rect>
  <rect x="250" y="115" width="90" height="18" fill="#333" rx="3"></rect>
  <rect x="250" y="140" width="40" height="6" fill="#A2DBB6" rx="3"></rect>
  <rect x="400" y="80" width="150" height="75" fill="#f0faf3" stroke="#e8f5ec" stroke-width="1" rx="10"></rect>
  <rect x="420" y="95" width="60" height="8" fill="#bbb" rx="3"></rect>
  <rect x="420" y="115" width="90" height="18" fill="#333" rx="3"></rect>
  <rect x="420" y="140" width="40" height="6" fill="#A2DBB6" rx="3"></rect>
  <rect x="570" y="80" width="150" height="75" fill="#f0faf3" stroke="#e8f5ec" stroke-width="1" rx="10"></rect>
  <rect x="590" y="95" width="60" height="8" fill="#bbb" rx="3"></rect>
  <rect x="590" y="115" width="90" height="18" fill="#333" rx="3"></rect>
  <rect x="590" y="140" width="40" height="6" fill="#A2DBB6" rx="3"></rect>
  
  <rect x="230" y="170" width="320" height="160" fill="#fff" stroke="#eee" stroke-width="1" rx="8"></rect>
  <rect x="245" y="182" width="80" height="10" fill="#ccc" rx="3"></rect>
  <polyline points="260,300 290,285 320,290 350,260 380,250 410,240 440,255 470,230 500,220 530,210" fill="none" stroke="#A2DBB6" stroke-width="3" stroke-linecap="round"></polyline>
  <circle cx="530" cy="210" r="5" fill="#A2DBB6"></circle>
  
  <rect x="570" y="170" width="150" height="160" fill="#fff" stroke="#eee" stroke-width="1" rx="8"></rect>
  <circle cx="645" cy="260" r="45" fill="none" stroke="#e8f5ec" stroke-width="18"></circle>
  <circle cx="645" cy="260" r="45" fill="none" stroke="#A2DBB6" stroke-width="18" stroke-dasharray="200 83" stroke-dashoffset="0"></circle>
  
  <rect x="230" y="345" width="490" height="110" fill="#fff" stroke="#eee" stroke-width="1" rx="8"></rect>
  <rect x="245" y="358" width="100" height="10" fill="#ccc" rx="3"></rect>
  
  <circle cx="260" cy="388" r="8" fill="#A2DBB6"></circle>
  <rect x="278" y="383" width="200" height="8" fill="#ddd" rx="3"></rect>
  <rect x="610" y="383" width="60" height="8" fill="#A2DBB6" rx="3"></rect>
  <circle cx="260" cy="413" r="8" fill="#A2DBB6"></circle>
  <rect x="278" y="408" width="180" height="8" fill="#ddd" rx="3"></rect>
  <rect x="610" y="408" width="60" height="8" fill="#A2DBB6" rx="3"></rect>
  <circle cx="260" cy="438" r="8" fill="#e8f5ec"></circle>
  <rect x="278" y="433" width="220" height="8" fill="#ddd" rx="3"></rect>
  <rect x="610" y="433" width="60" height="8" fill="#eee" rx="3"></rect>
  
  <rect x="280" y="210" width="240" height="60" fill="rgba(0,0,0,0.7)" rx="8"></rect>
  <text x="400" y="248" text-anchor="middle" font-family="Arial, sans-serif" font-size="28" font-weight="bold" fill="#A2DBB6">Apres</text>
</svg>