<svg xmlns="http://www.w3.org/2000/svg" viewBox="0 0 800 500" width="800" height="500">
  <rect width="800" height="500" fill="#e8e8e8"></rect>
  
  <rect x="80" y="60" width="120" height="160" fill="#f5f5f0" stroke="#999" stroke-width="1" transform="rotate(-8 140 140)" rx="2"></rect>
  <line x1="95" y1="90" x2="185" y2="82" stroke="#ccc" stroke-width="2"></line>
  <line x1="95" y1="110" x2="175" y2="103" stroke="#ccc" stroke-width="2"></line>
  <line x1="95" y1="130" x2="165" y2="124" stroke="#ccc" stroke-width="2"></line>
  <rect x="200" y="40" width="120" height="160" fill="#f5f5f0" stroke="#999" stroke-width="1" transform="rotate(5 260 120)" rx="2"></rect>
  <line x1="215" y1="70" x2="305" y2="75" stroke="#ccc" stroke-width="2"></line>
  <line x1="215" y1="90" x2="295" y2="95" stroke="#ccc" stroke-width="2"></line>
  <rect x="360" y="50" width="120" height="160" fill="#f5f5f0" stroke="#999" stroke-width="1" transform="rotate(-3 420 130)" rx="2"></rect>
  <line x1="375" y1="80" x2="465" y2="77" stroke="#ccc" stroke-width="2"></line>
  <line x1="375" y1="100" x2="455" y2="97" stroke="#ccc" stroke-width="2"></line>
  
  <line x1="200" y1="140" x2="280" y2="100" stroke="#c0392b" stroke-width="3" marker-end="url(#arrowRed)"></line>
  <line x1="320" y1="130" x2="380" y2="110" stroke="#c0392b" stroke-width="3" marker-end="url(#arrowRed)"></line>
  <line x1="420" y1="180" x2="500" y2="250" stroke="#c0392b" stroke-width="3" marker-end="url(#arrowRed)"></line>
  <line x1="150" y1="220" x2="250" y2="300" stroke="#c0392b" stroke-width="3" marker-end="url(#arrowRed)"></line>
  <line x1="350" y1="240" x2="300" y2="320" stroke="#c0392b" stroke-width="3" marker-end="url(#arrowRed)"></line>
  <defs>
    <marker id="arrowRed" markerWidth="10" markerHeight="7" refX="10" refY="3.5" orient="auto">
      <polygon points="0 0, 10 3.5, 0 7" fill="#c0392b"></polygon>
    </marker>
  </defs>
  
  <circle cx="600" cy="80" r="20" fill="#999"></circle>
  <rect x="585" y="105" width="30" height="40" fill="#999" rx="5"></rect>
  <circle cx="680" cy="180" r="20" fill="#999"></circle>
  <rect x="665" y="205" width="30" height="40" fill="#999" rx="5"></rect>
  
  <rect x="100" y="300" width="140" height="100" fill="#f5f5f0" stroke="#999" stroke-width="1" transform="rotate(6 170 350)" rx="2"></rect>
  <rect x="280" y="320" width="140" height="100" fill="#f5f5f0" stroke="#999" stroke-width="1" transform="rotate(-4 350 370)" rx="2"></rect>
  <rect x="460" y="290" width="140" height="100" fill="#f5f5f0" stroke="#999" stroke-width="1" transform="rotate(3 530 340)" rx="2"></rect>
  
  <circle cx="680" cy="380" r="45" fill="#fff" stroke="#999" stroke-width="3"></circle>
  <line x1="680" y1="380" x2="680" y2="348" stroke="#666" stroke-width="3"></line>
  <line x1="680" y1="380" x2="705" y2="390" stroke="#c0392b" stroke-width="2"></line>
  
  <text x="540" y="160" font-family="Arial" font-size="40" fill="#c0392b" opacity="0.5">X</text>
  <text x="160" y="280" font-family="Arial" font-size="40" fill="#c0392b" opacity="0.5">X</text>
  
  <rect x="250" y="210" width="300" height="60" fill="rgba(0,0,0,0.75)" rx="8"></rect>
  <text x="400" y="248" text-anchor="middle" font-family="Arial, sans-serif" font-size="26" font-weight="bold" fill="#e74c3c">Processus manuel</text>
</svg>