<svg xmlns="http://www.w3.org/2000/svg" viewBox="0 0 800 500" width="800" height="500">
  <rect width="800" height="500" fill="#f0faf3"></rect>
  
  <defs>
    <marker id="arrowGreen" markerWidth="10" markerHeight="7" refX="10" refY="3.5" orient="auto">
      <polygon points="0 0, 10 3.5, 0 7" fill="#A2DBB6"></polygon>
    </marker>
  </defs>
  
  <rect x="60" y="100" width="140" height="80" fill="#ffffff" stroke="#A2DBB6" stroke-width="2" rx="12"></rect>
  <circle cx="130" cy="125" r="14" fill="#e8f5ec"></circle>
  <rect x="90" y="148" width="80" height="8" fill="#ddd" rx="3"></rect>
  <rect x="100" y="162" width="60" height="6" fill="#eee" rx="3"></rect>
  
  <line x1="200" y1="140" x2="260" y2="140" stroke="#A2DBB6" stroke-width="3" marker-end="url(#arrowGreen)"></line>
  
  <rect x="270" y="100" width="140" height="80" fill="#ffffff" stroke="#A2DBB6" stroke-width="2" rx="12"></rect>
  <circle cx="340" cy="125" r="14" fill="#e8f5ec"></circle>
  <rect x="300" y="148" width="80" height="8" fill="#ddd" rx="3"></rect>
  <rect x="310" y="162" width="60" height="6" fill="#eee" rx="3"></rect>
  
  <line x1="410" y1="140" x2="470" y2="140" stroke="#A2DBB6" stroke-width="3" marker-end="url(#arrowGreen)"></line>
  
  <rect x="480" y="100" width="140" height="80" fill="#ffffff" stroke="#A2DBB6" stroke-width="2" rx="12"></rect>
  <circle cx="550" cy="125" r="14" fill="#e8f5ec"></circle>
  <rect x="510" y="148" width="80" height="8" fill="#ddd" rx="3"></rect>
  <rect x="520" y="162" width="60" height="6" fill="#eee" rx="3"></rect>
  
  <line x1="620" y1="140" x2="660" y2="140" stroke="#A2DBB6" stroke-width="3" marker-end="url(#arrowGreen)"></line>
  
  <circle cx="700" cy="140" r="30" fill="#A2DBB6" opacity="0.8"></circle>
  <text x="700" y="148" text-anchor="middle" font-family="Arial" font-size="28" fill="#fff">✓</text>
  
  <rect x="100" y="240" width="600" height="200" fill="#ffffff" stroke="#e0e0e0" stroke-width="1" rx="12"></rect>
  
  <rect x="150" y="340" width="40" height="80" fill="#e8f5ec" rx="4"></rect>
  <rect x="210" y="310" width="40" height="110" fill="#A2DBB6" opacity="0.6" rx="4"></rect>
  <rect x="270" y="290" width="40" height="130" fill="#A2DBB6" opacity="0.7" rx="4"></rect>
  <rect x="330" y="270" width="40" height="150" fill="#A2DBB6" opacity="0.8" rx="4"></rect>
  <rect x="390" y="300" width="40" height="120" fill="#A2DBB6" opacity="0.7" rx="4"></rect>
  
  <rect x="480" y="265" width="190" height="55" fill="#f0faf3" rx="8"></rect>
  <circle cx="505" cy="292" r="12" fill="#A2DBB6" opacity="0.5"></circle>
  <rect x="525" y="282" width="80" height="8" fill="#ccc" rx="3"></rect>
  <rect x="525" y="298" width="50" height="8" fill="#A2DBB6" rx="3"></rect>
  <rect x="480" y="335" width="190" height="55" fill="#f0faf3" rx="8"></rect>
  <circle cx="505" cy="362" r="12" fill="#A2DBB6" opacity="0.5"></circle>
  <rect x="525" y="352" width="80" height="8" fill="#ccc" rx="3"></rect>
  <rect x="525" y="368" width="50" height="8" fill="#A2DBB6" rx="3"></rect>
  
  <rect x="130" y="260" width="160" height="14" fill="#333" rx="3"></rect>
  <rect x="130" y="280" width="100" height="8" fill="#bbb" rx="3"></rect>
  
  <rect x="280" y="210" width="240" height="60" fill="rgba(0,0,0,0.7)" rx="8"></rect>
  <text x="400" y="248" text-anchor="middle" font-family="Arial, sans-serif" font-size="28" font-weight="bold" fill="#A2DBB6">Automatise</text>
</svg>