<svg xmlns="http://www.w3.org/2000/svg" viewBox="0 0 800 500" width="800" height="500">
  <rect width="800" height="500" fill="#d5d5d5"></rect>
  
  <rect x="50" y="30" width="700" height="440" fill="#eee" stroke="#bbb" stroke-width="2" rx="8"></rect>
  
  <rect x="50" y="30" width="700" height="45" fill="#777" rx="8"></rect>
  <rect x="70" y="42" width="100" height="18" fill="#999" rx="3"></rect>
  <rect x="620" y="42" width="30" height="18" fill="#c0392b" rx="3"></rect>
  <rect x="660" y="42" width="30" height="18" fill="#888" rx="3"></rect>
  <rect x="700" y="42" width="30" height="18" fill="#888" rx="3"></rect>
  
  <rect x="70" y="90" width="220" height="150" fill="#aaa" rx="2"></rect>
  <rect x="300" y="90" width="100" height="150" fill="#c0392b" opacity="0.6" rx="2"></rect>
  <rect x="410" y="90" width="150" height="70" fill="#888" rx="2"></rect>
  <rect x="570" y="90" width="160" height="70" fill="#bbb" rx="2"></rect>
  <rect x="410" y="170" width="320" height="70" fill="#999" rx="2"></rect>
  
  <rect x="70" y="255" width="100" height="100" fill="#ccc" rx="2"></rect>
  <rect x="180" y="255" width="250" height="100" fill="#888" rx="2"></rect>
  <rect x="440" y="255" width="100" height="100" fill="#c0392b" opacity="0.5" rx="2"></rect>
  <rect x="550" y="255" width="180" height="100" fill="#aaa" rx="2"></rect>
  
  <rect x="70" y="370" width="320" height="80" fill="#999" rx="2"></rect>
  <rect x="400" y="370" width="80" height="80" fill="#bbb" rx="2"></rect>
  <rect x="490" y="370" width="80" height="80" fill="#c0392b" opacity="0.4" rx="2"></rect>
  <rect x="580" y="370" width="150" height="80" fill="#888" rx="2"></rect>
  
  <rect x="280" y="210" width="240" height="60" fill="rgba(0,0,0,0.75)" rx="8"></rect>
  <text x="400" y="248" text-anchor="middle" font-family="Arial, sans-serif" font-size="28" font-weight="bold" fill="#e74c3c">Avant</text>
</svg>