<svg xmlns="http://www.w3.org/2000/svg" viewBox="0 0 800 500" width="800" height="500">
  <rect width="800" height="500" fill="#f0faf3"></rect>
  
  <rect x="250" y="20" width="300" height="460" fill="#ffffff" stroke="#ddd" stroke-width="2" rx="24"></rect>
  <rect x="250" y="20" width="300" height="36" fill="#fafafa" rx="24"></rect>
  <rect x="365" y="30" width="70" height="6" fill="#ddd" rx="3"></rect>
  
  <rect x="260" y="60" width="280" height="85" fill="#e8f5ec" rx="0"></rect>
  <circle cx="310" cy="132" r="32" fill="#A2DBB6" stroke="#fff" stroke-width="3"></circle>
  <rect x="355" y="108" width="100" height="14" fill="#333" rx="3"></rect>
  <rect x="355" y="128" width="70" height="10" fill="#A2DBB6" rx="3"></rect>
  
  <rect x="270" y="170" width="80" height="28" fill="#f0faf3" rx="14"></rect>
  <rect x="360" y="170" width="80" height="28" fill="#f0faf3" rx="14"></rect>
  <rect x="450" y="170" width="80" height="28" fill="#f0faf3" rx="14"></rect>
  
  <rect x="270" y="206" width="200" height="8" fill="#bbb" rx="3"></rect>
  <rect x="270" y="220" width="150" height="8" fill="#ddd" rx="3"></rect>
  <rect x="270" y="236" width="120" height="24" fill="#A2DBB6" rx="12"></rect>
  
  <rect x="265" y="270" width="86" height="86" fill="#e8f5ec" rx="4"></rect>
  <rect x="357" y="270" width="86" height="86" fill="#d4edda" rx="4"></rect>
  <rect x="449" y="270" width="86" height="86" fill="#e8f5ec" rx="4"></rect>
  <rect x="265" y="362" width="86" height="86" fill="#d4edda" rx="4"></rect>
  <rect x="357" y="362" width="86" height="86" fill="#e8f5ec" rx="4"></rect>
  <rect x="449" y="362" width="86" height="86" fill="#d4edda" rx="4"></rect>
  
  <circle cx="130" cy="150" r="30" fill="#A2DBB6" opacity="0.2"></circle>
  <circle cx="110" cy="320" r="20" fill="#A2DBB6" opacity="0.15"></circle>
  <circle cx="680" cy="180" r="25" fill="#A2DBB6" opacity="0.2"></circle>
  <circle cx="700" cy="350" r="18" fill="#A2DBB6" opacity="0.15"></circle>
  
  <rect x="280" y="210" width="240" height="60" fill="rgba(0,0,0,0.7)" rx="8"></rect>
  <text x="400" y="248" text-anchor="middle" font-family="Arial, sans-serif" font-size="28" font-weight="bold" fill="#A2DBB6">Apres</text>
</svg>