<svg xmlns="http://www.w3.org/2000/svg" viewBox="0 0 800 500" width="800" height="500">
  <rect width="800" height="500" fill="#e0e0e0"></rect>
  
  <rect x="250" y="20" width="300" height="460" fill="#f5f5f5" stroke="#999" stroke-width="3" rx="20"></rect>
  <rect x="250" y="20" width="300" height="40" fill="#bbb" rx="20"></rect>
  <rect x="360" y="30" width="80" height="8" fill="#999" rx="4"></rect>
  
  <rect x="260" y="65" width="280" height="90" fill="#888"></rect>
  <circle cx="310" cy="140" r="35" fill="#aaa" stroke="#f5f5f5" stroke-width="3"></circle>
  <rect x="355" y="110" width="120" height="14" fill="#666" rx="2"></rect>
  <rect x="355" y="130" width="80" height="10" fill="#999" rx="2"></rect>
  
  <rect x="270" y="175" width="80" height="30" fill="#c0392b" rx="3"></rect>
  <rect x="360" y="175" width="80" height="30" fill="#7f8c8d" rx="3"></rect>
  <rect x="450" y="175" width="80" height="30" fill="#c0392b" rx="3"></rect>
  
  <rect x="265" y="215" width="130" height="90" fill="#ccc" stroke="#bbb" stroke-width="1"></rect>
  <rect x="405" y="215" width="130" height="90" fill="#999" stroke="#bbb" stroke-width="1"></rect>
  <rect x="265" y="315" width="270" height="60" fill="#b0b0b0" stroke="#bbb" stroke-width="1"></rect>
  <rect x="265" y="385" width="85" height="70" fill="#ddd" stroke="#bbb" stroke-width="1"></rect>
  <rect x="358" y="385" width="85" height="70" fill="#aaa" stroke="#bbb" stroke-width="1"></rect>
  <rect x="451" y="385" width="84" height="70" fill="#ccc" stroke="#bbb" stroke-width="1"></rect>
  
  <circle cx="120" cy="150" r="25" fill="#c0392b" opacity="0.4"></circle>
  <rect x="80" y="250" width="100" height="60" fill="#999" opacity="0.3" rx="5"></rect>
  <circle cx="680" cy="200" r="20" fill="#888" opacity="0.4"></circle>
  <rect x="630" y="300" width="90" height="50" fill="#999" opacity="0.3" rx="5"></rect>
  
  <rect x="280" y="210" width="240" height="60" fill="rgba(0,0,0,0.75)" rx="8"></rect>
  <text x="400" y="248" text-anchor="middle" font-family="Arial, sans-serif" font-size="28" font-weight="bold" fill="#e74c3c">Avant</text>
</svg>